<?xml version="1.0" standalone="no"?>
<!DOCTYPE svg PUBLIC "-//W3C//DTD SVG 20010904//EN"
 "http://www.w3.org/TR/2001/REC-SVG-20010904/DTD/svg10.dtd">
<svg version="1.0" xmlns="http://www.w3.org/2000/svg"
 width="700.000000pt" height="700.000000pt" viewBox="0 0 700.000000 700.000000"
 preserveAspectRatio="xMidYMid meet">
<metadata>
Created by potrace 1.14, written by Peter Selinger 2001-2017
</metadata>
<g transform="translate(0.000000,700.000000) scale(0.100000,-0.100000)"
fill="#000000" stroke="none">
<path d="M3189 6296 c-2 -2 -60 -6 -129 -9 -154 -8 -217 -24 -346 -87 -115
-57 -210 -136 -238 -198 -18 -40 -19 -40 -80 -44 -33 -2 -93 -1 -133 2 l-72 5
-28 51 c-42 76 -54 89 -110 122 l-52 31 -403 -4 c-222 -2 -423 -6 -448 -10
-203 -29 -251 -74 -251 -242 l0 -68 -107 -55 c-203 -105 -374 -250 -508 -431
-128 -174 -197 -315 -260 -533 l-26 -90 5 -1406 c2 -773 6 -1414 9 -1425 3
-11 9 -42 12 -68 8 -59 69 -224 121 -327 109 -218 284 -415 490 -554 167 -113
376 -198 565 -231 82 -14 697 -20 2250 -20 1547 0 2284 6 2355 20 305 59 609
223 800 433 95 104 107 119 161 199 117 175 208 407 221 566 5 50 8 713 8
1472 l0 1380 -38 115 c-52 153 -140 335 -218 445 -80 113 -229 261 -343 342
-154 110 -382 209 -568 247 -99 21 -474 32 -1174 35 l-111 1 -18 41 c-54 118
-315 265 -505 284 -68 7 -825 17 -831 11z m2401 -810 c68 -6 84 -9 165 -27
358 -80 635 -343 757 -719 l25 -75 -2 -1310 c-1 -720 -4 -1321 -8 -1335 -3
-14 -8 -47 -12 -75 -21 -144 -166 -392 -302 -514 -121 -108 -285 -198 -433
-236 -98 -25 -451 -30 -2280 -30 -1810 0 -2180 5 -2275 30 -293 76 -530 274
-672 560 -51 105 -70 175 -81 300 -4 50 -7 662 -7 1360 l1 1270 33 90 c63 169
129 278 241 398 88 95 261 209 380 252 139 50 186 56 455 61 143 3 264 6 269
8 20 5 3685 -3 3746 -8z"/>
<path d="M1457 5344 c-1 -1 -29 -4 -62 -5 -377 -17 -679 -286 -761 -679 -13
-61 -18 -131 -19 -250 l0 -165 468 -1 467 -1 40 78 c131 264 421 582 695 765
33 23 67 44 75 47 8 4 31 17 50 29 57 35 283 146 313 153 48 13 39 23 -25 27
-66 5 -1236 6 -1241 2z"/>
<path d="M4252 5342 c-9 -6 16 -21 80 -47 297 -121 606 -351 843 -627 109
-126 175 -223 232 -338 l43 -85 471 -1 471 -1 -5 176 c-3 97 -8 190 -11 206
-27 134 -26 128 -67 225 -84 198 -237 341 -464 435 -119 50 -168 53 -985 60
-338 3 -601 2 -608 -3z"/>
<path d="M3468 5255 c-2 -1 -41 -5 -88 -8 -47 -3 -101 -9 -120 -12 -147 -27
-208 -40 -300 -67 -450 -129 -833 -406 -1094 -791 -144 -213 -253 -479 -292
-717 -3 -19 -7 -37 -9 -40 -16 -26 -24 -350 -12 -475 48 -500 326 -1004 736
-1335 139 -112 391 -251 552 -304 223 -73 392 -100 629 -100 123 0 285 10 299
18 3 2 27 7 54 10 26 4 100 20 165 37 571 148 1049 539 1287 1054 47 102 109
287 130 390 9 44 18 87 20 95 20 97 27 404 12 534 -32 278 -148 588 -315 837
-254 379 -633 665 -1054 793 -48 15 -98 29 -110 32 -66 14 -179 33 -226 39
-50 7 -259 14 -264 10z m234 -485 c51 -6 111 -16 133 -21 22 -6 51 -13 64 -15
101 -19 331 -127 456 -216 220 -155 422 -412 514 -653 13 -33 27 -69 32 -80
19 -45 46 -159 67 -280 9 -54 8 -308 -1 -370 -52 -357 -220 -664 -497 -908
-193 -171 -495 -307 -755 -343 -27 -3 -61 -8 -75 -10 -14 -2 -79 -3 -145 -4
-112 0 -163 3 -225 15 -14 3 -41 7 -60 10 -107 18 -256 68 -375 127 -73 37
-204 117 -231 143 -6 5 -35 30 -65 55 -369 311 -561 776 -514 1245 4 39 9 72
10 75 2 3 6 25 10 49 10 68 53 209 91 296 216 500 676 839 1209 890 39 4 71 8
72 9 6 5 208 -4 285 -14z"/>
<path d="M3335 4539 c-22 -4 -58 -11 -80 -14 -60 -9 -241 -72 -310 -106 -347
-175 -582 -482 -662 -863 -18 -85 -24 -312 -11 -396 43 -273 157 -505 336
-685 82 -82 91 -90 168 -142 168 -112 353 -184 544 -210 71 -10 310 -10 375 0
258 40 535 178 690 343 76 82 99 110 143 175 88 132 168 317 187 434 20 123
23 161 20 275 -14 582 -447 1084 -1022 1185 -91 16 -303 18 -378 4z m548 -189
c260 -79 367 -310 188 -409 -85 -47 -234 -48 -357 -1 -134 50 -228 145 -242
244 -5 41 4 70 34 106 71 83 221 107 377 60z m-768 -1855 c104 -13 243 -69
345 -138 151 -103 116 -172 -82 -166 -265 9 -590 192 -499 282 32 32 108 39
236 22z"/>
<path d="M5831 1945 c-113 -53 -164 -152 -140 -271 22 -112 116 -184 238 -184
137 1 226 80 239 213 17 181 -173 317 -337 242z"/>
</g>
</svg>
